<?xml version="1.0" encoding="iso-8859-1"?>
<svg fill="#000000" height="800px" width="800px" version="1.1" id="Capa_1" xmlns="http://www.w3.org/2000/svg" xmlns:xlink="http://www.w3.org/1999/xlink" 
	 viewBox="0 0 305 305" xml:space="preserve">
<g>
	<path d="M152.5,40.478C68.411,40.478,0,108.889,0,192.978v8.121l7.923-1.779c47.377-10.634,96.019-16.025,144.574-16.025
		c48.038,0,96.173,5.279,143.068,15.69l9.435,2.096v-8.103C305,108.889,236.589,40.478,152.5,40.478z M152.497,170.294
		c-46.728,0-93.537,4.897-139.264,14.563c4.216-73.159,65.069-131.38,139.267-131.38S287.551,111.7,291.767,184.86
		C246.042,175.193,199.224,170.294,152.497,170.294z"/>
	<path d="M286.422,222.59h-12.053c-5.413-16.219-29.612-28.111-59.515-28.111c-15.567,0-27.686,3.268-36.021,9.711
		c-6.226,4.813-10.138,11.239-11.543,18.809h-25.58c-1.405-7.57-5.317-13.995-11.543-18.809c-8.335-6.443-20.454-9.711-36.021-9.711
		c-29.903,0-54.102,11.892-59.515,28.111H23.169c-3.59,0-6.5,2.91-6.5,6.5s2.91,6.5,6.5,6.5h11.214
		c4.86,16.636,29.358,28.932,59.762,28.932c15.567,0,27.686-3.268,36.021-9.711c6.227-4.814,10.14-11.241,11.544-18.813h25.579
		c1.404,7.571,5.317,13.998,11.544,18.813c8.335,6.443,20.454,9.711,36.021,9.711c30.404,0,54.903-12.296,59.762-28.932h11.806
		c3.59,0,6.5-2.91,6.5-6.5S290.012,222.59,286.422,222.59z M107.058,208.532c2.74,0.487,5.476,1.179,8.047,2.15l-39.097,39.097
		c-2.85-0.573-5.537-1.271-8.041-2.074l39.132-39.131L107.058,208.532z M46.489,229.5c0-9.857,17.532-20.772,43.214-21.917
		l-34.311,34.311C49.703,238.135,46.489,233.72,46.489,229.5z M94.146,251.522c-0.497,0-0.984-0.012-1.476-0.019l33.21-33.21
		c2.132,2.915,3.424,6.583,3.424,11.208C129.304,248.661,107.276,251.522,94.146,251.522z M203.123,250.666
		c-2.753-0.432-5.527-1.059-8.156-1.96l39.238-39.237c2.818,0.611,5.466,1.349,7.929,2.186L203.123,250.666z M214.854,207.479
		c0.981,0,1.95,0.018,2.91,0.045l-34.003,34.003c-2.512-3.037-4.065-6.957-4.065-12.027
		C179.695,210.34,201.723,207.479,214.854,207.479z M220.836,251.336l33.633-33.634c5.146,3.626,8.04,7.799,8.04,11.798
		C262.51,239.159,245.676,249.833,220.836,251.336z"/>
</g>
</svg>