<?xml version="1.0" encoding="UTF-8" standalone="no"?>
<!-- Created with Inkscape (http://www.inkscape.org/) -->

<svg
   width="165.64737mm"
   height="39.69561mm"
   viewBox="0 0 165.64737 39.69561"
   version="1.1"
   id="svg5"
   xml:space="preserve"
   inkscape:version="1.2.1 (9c6d41e410, 2022-07-14)"
   sodipodi:docname="carrie.svg"
   xmlns:inkscape="http://www.inkscape.org/namespaces/inkscape"
   xmlns:sodipodi="http://sodipodi.sourceforge.net/DTD/sodipodi-0.dtd"
   xmlns="http://www.w3.org/2000/svg"
   xmlns:svg="http://www.w3.org/2000/svg"><sodipodi:namedview
     id="namedview7"
     pagecolor="#505050"
     bordercolor="#eeeeee"
     borderopacity="1"
     inkscape:showpageshadow="0"
     inkscape:pageopacity="0"
     inkscape:pagecheckerboard="0"
     inkscape:deskcolor="#505050"
     inkscape:document-units="mm"
     showgrid="false"
     inkscape:zoom="0.74208053"
     inkscape:cx="442.00055"
     inkscape:cy="255.36312"
     inkscape:window-width="1920"
     inkscape:window-height="991"
     inkscape:window-x="-9"
     inkscape:window-y="-9"
     inkscape:window-maximized="1"
     inkscape:current-layer="layer1" /><defs
     id="defs2" /><g
     inkscape:label="Layer 1"
     inkscape:groupmode="layer"
     id="layer1"
     transform="translate(-24.512107,-193.81406)"><path
       style="fill:#f25e19;fill-opacity:1;stroke:#f35d17;stroke-width:0.264583;stroke-opacity:1"
       d="m 65.571189,196.04194 c 0,0 -4.06451,-1.3633 -6.176785,-1.63874 -1.458317,-0.19016 -2.989326,-0.37267 -4.411988,0 -1.492378,0.39093 -2.906301,1.21606 -4.033822,2.26902 -1.175435,1.0977 -1.888108,2.61594 -2.647193,4.03382 -1.012998,1.89216 -1.962456,3.8524 -2.521138,5.92467 -0.705463,2.61671 -1.005888,5.3575 -1.008454,8.06764 -0.0026,2.75184 0.01494,5.62747 1.008454,8.1937 0.446174,1.15246 1.125868,2.3234 2.142969,3.02536 0.964597,0.66572 2.232359,0.9269 3.403534,0.8824 1.686355,-0.0641 3.26517,-0.91603 4.790159,-1.63874 1.296023,-0.6142 3.65565,-2.26902 3.65565,-2.26902 l -0.252113,-7.05919 c 0,0 -1.85959,2.20383 -3.025365,3.02537 -0.722103,0.50888 -1.554091,0.86409 -2.39508,1.13451 -0.447233,0.14381 -0.938209,0.39219 -1.386626,0.25211 -0.567208,-0.17718 -0.970229,-0.74209 -1.260567,-1.26057 -0.527824,-0.94258 -0.602651,-2.08211 -0.756343,-3.15142 -0.239416,-1.66574 -0.420525,-3.36786 -0.252114,-5.04227 0.186639,-1.85564 0.741176,-3.6707 1.386626,-5.42045 0.445498,-1.2077 0.863451,-2.48971 1.701768,-3.46656 0.550365,-0.64131 1.273682,-1.1964 2.079937,-1.44965 0.76167,-0.23924 1.602702,-0.0976 2.39508,0 0.859753,0.10584 1.708702,0.32974 2.521138,0.63028 0.616847,0.22819 1.764794,0.8824 1.764794,0.8824 z"
       id="path9789"
       sodipodi:nodetypes="caaaaaaaaaaccaaaaaaaaaaacc" /><path
       style="fill:#f25e19;fill-opacity:1;stroke:#f35d17;stroke-width:0.264583;stroke-opacity:1"
       d="m 35.002403,195.91588 c -2.670313,2.6871 -5.463456,5.25138 -8.634894,7.43736 l -0.567255,0.44119 -1.134512,7.43736 8.00461,0.12605 z"
       id="path15091"
       sodipodi:nodetypes="cccccc" /><path
       style="fill:#f25e19;fill-opacity:1;stroke:#f35d17;stroke-width:0.264583;stroke-opacity:1"
       d="m 44.519695,195.53771 -3.277478,4.53805 -2.458109,2.96233 -1.512681,1.26057 -0.75634,6.61799 6.30284,-0.31515 z"
       id="path15093" /><path
       id="path15095"
       style="fill:#f25e19;fill-opacity:1;stroke:#f35d17;stroke-width:0.264583;stroke-opacity:1"
       d="m 75.592826,193.96184 c -7.197202,9.40587 -11.415366,19.93676 -14.685925,30.75782 l 5.357813,0.69349 2.836002,-7.7525 11.281999,1.89085 2.079976,9.13897 5.924703,2.07998 -8.067724,-35.73684 z m 0.499711,8.28477 2.269113,12.10159 c 0,0 -2.381203,-0.8513 -3.618901,-1.08211 -0.994396,-0.18543 -3.025138,-0.23719 -3.025138,-0.23719 z" /><path
       id="path15097"
       style="fill:#f25e19;fill-opacity:1;stroke:#f35d17;stroke-width:0.264583;stroke-opacity:1"
       d="m 91.664714,198.37398 0.25218,33.78346 7.563363,1.19735 v -12.98371 l 4.916503,0.31471 7.24813,12.47986 8.69818,-1.32343 -7.62641,-12.35377 c 0,0 0.96874,-0.87959 1.44953,-1.32343 0.63349,-0.5848 1.38987,-1.06308 1.89084,-1.76475 0.62844,-0.88021 1.00379,-1.92939 1.32343,-2.96261 0.27768,-0.8976 0.47186,-1.83395 0.50436,-2.77296 0.0329,-0.95068 -0.094,-1.91136 -0.31522,-2.83652 -0.16699,-0.69833 -0.44695,-1.36909 -0.75655,-2.01693 -0.41016,-0.85827 -0.84866,-1.7208 -1.44952,-2.45825 -0.57311,-0.70339 -1.27536,-1.30503 -2.01693,-1.82779 -0.54545,-0.38451 -1.14217,-0.70484 -1.76475,-0.94517 -0.48487,-0.18717 -1.51257,-0.37827 -1.51257,-0.37827 -5.89264,-1.45763 -9.11472,-0.0985 -18.404566,-1.82779 z m 10.195246,7.55819 c 1.11841,-0.008 2.35001,0.0285 3.19412,0.18242 0.77666,0.14161 1.56172,0.37952 2.22829,0.80253 0.46121,0.29269 0.90261,0.67603 1.15858,1.15859 0.36858,0.69495 0.54107,1.5368 0.44597,2.31769 -0.10288,0.84457 -0.47755,1.70623 -1.0697,2.31717 -0.50863,0.52478 -1.24985,0.81291 -1.96112,0.98082 -0.95426,0.22527 -2.94142,0 -2.94142,0 l -4.011132,-0.0894 0.267684,-7.57628 c 0,0 1.250778,-0.0834 2.688728,-0.0935 z" /><path
       id="path15099"
       style="fill:#f25e19;fill-opacity:1;stroke:#f35d17;stroke-width:0.264583;stroke-opacity:1"
       d="m 130.0541,198.29026 c -2.79752,-0.005 -5.64003,0.61607 -8.35452,0.63355 1.70149,11.10299 1.90647,22.0818 2.22828,33.06982 l 6.06113,-2.05052 c -0.15793,-4.04211 -0.19767,-8.0051 0,-11.81013 l 2.40657,-0.71314 c 1.7091,3.22374 2.60703,6.44751 3.25355,9.67125 l 4.18941,-2.58486 -3.74344,-10.02781 c 0,0 0.4879,-0.94461 0.71262,-1.42627 0.3629,-0.77781 0.75627,-1.54706 1.02526,-2.36213 0.26766,-0.81103 0.48209,-1.64747 0.57929,-2.49597 0.0879,-0.76749 0.0861,-1.54948 0,-2.31717 -0.0747,-0.66615 -0.21709,-1.33088 -0.44545,-1.96112 -0.2784,-0.76833 -0.65783,-1.5059 -1.11414,-2.18385 -0.40578,-0.60289 -0.87682,-1.17335 -1.42627,-1.64899 -0.66677,-0.5772 -1.40083,-1.12123 -2.22829,-1.42627 -0.81611,-0.30086 -1.71555,-0.32736 -2.58486,-0.35657 -0.18605,-0.006 -0.37263,-0.009 -0.55914,-0.01 z m 0.1478,5.1847 c 0.44722,-0.008 0.89043,0.19171 1.29708,0.3824 0.46438,0.21777 0.94177,0.4807 1.26039,0.88264 0.4217,0.53196 0.62817,1.22425 0.75654,1.89084 0.16687,0.86648 0.33768,1.83163 0,2.64686 -0.27289,0.65881 -0.89798,1.15146 -1.51257,1.51309 -0.79094,0.4654 -2.64738,0.75603 -2.64738,0.75603 l -0.88264,-7.31119 c 0,0 1.03964,-0.70664 1.63918,-0.75654 0.0298,-0.002 0.0596,-0.004 0.0894,-0.004 z" /><path
       style="fill:#f25e19;fill-opacity:1;stroke:#f35d17;stroke-width:0.264583;stroke-opacity:1"
       d="m 149.24235,194.06615 c -2.38653,0.31246 -4.77914,0.61579 -7.39825,0.57938 0.47678,9.52777 0.56854,19.65418 0.26737,29.01366 l 5.25901,-1.5153 c 0,0 0.10902,-5.57756 0.49024,-8.33419 0.25627,-1.85315 0.94597,-3.62884 1.20333,-5.48184 0.20474,-1.47411 0.22282,-2.96918 0.26741,-4.45678 0.0365,-1.21764 0.009,-2.43641 0,-3.65456 -0.0148,-2.05028 -0.0891,-6.15037 -0.0891,-6.15037 z"
       id="path15101"
       sodipodi:nodetypes="ccccaasacc" /><path
       style="fill:#f25e19;fill-opacity:1;stroke:#f35d17;stroke-width:0.264583;stroke-opacity:1"
       d="m 170.41208,195.938 -5.97209,-0.98049 -10.51801,-0.89136 c 0,0 0.33776,4.52106 0.17827,6.77431 -0.1383,1.95385 -0.67676,3.85878 -0.98049,5.79383 -0.35379,2.25403 -0.70488,4.50938 -0.98049,6.7743 -0.29213,2.40066 -0.71309,7.21999 -0.71309,7.21999 l -0.0891,1.06963 c 0,0 2.6652,-0.44548 4.01111,-0.53481 1.3341,-0.0885 2.67743,-0.0948 4.0111,-1e-5 1.46696,0.10426 2.92387,0.34403 4.36765,0.62395 1.8323,0.35525 3.64634,0.81162 5.43728,1.33704 1.14503,0.33593 3.38715,1.15876 3.38715,1.15876 l -0.35654,-6.59604 -3.47629,-1.2479 -3.29802,-0.80222 -2.76321,-0.53481 h -3.47629 c -0.43787,-1.55283 -0.33422,-3.64718 0.17827,-6.15036 0,0 1.65912,-0.27175 2.4958,-0.26741 1.01716,0.005 2.03292,0.15844 3.03062,0.35654 1.18091,0.23449 2.34271,0.57484 3.47628,0.9805 0.48855,0.17483 1.42617,0.62395 1.42617,0.62395 l -0.17827,-6.32863 -2.40666,-0.80223 -2.85234,-0.35654 -2.40666,0.0891 -1.60444,0.0891 0.44568,-4.0111 c 0,0 1.18625,-0.14852 1.78271,-0.17827 1.12765,-0.0562 2.25893,-0.0433 3.38715,0 0.77422,0.0297 1.54911,0.0791 2.31753,0.17826 0.65892,0.085 1.96099,0.35661 1.96099,0.35661 z"
       id="path15103"
       sodipodi:nodetypes="cccaaaccaaaacccccccaaacccccccaaacc" /><path
       style="fill:#f25e19;fill-opacity:1;stroke:#f35d17;stroke-width:0.264583;stroke-opacity:1"
       d="m 174.24491,196.20541 -0.26741,11.4985 6.32863,-5.79382 -0.35654,-4.81332 z"
       id="path15105" /><path
       style="fill:#f25e19;fill-opacity:1;stroke:#f35d17;stroke-width:0.264583;stroke-opacity:1"
       d="m 182.62366,197.89899 0.53481,12.83553 6.86345,-6.86344 -0.44568,-4.72419 z"
       id="path15107" /></g></svg>
